<svg xmlns="http://www.w3.org/2000/svg" viewBox="0 0 426.67 512.12"><defs><style>.bd8a2705-fe08-4ad2-8d60-638f6ca70658{fill:#545454;}</style></defs><title>android</title><g id="b3835ce0-7a0c-4e91-a4a9-da651a708d77" data-name="Слой 2"><g id="e46bf474-85c4-4d3e-bd50-1c89ce9fc516" data-name="Capa 1"><path class="bd8a2705-fe08-4ad2-8d60-638f6ca70658" d="M32,170.79a32,32,0,0,0-32,32V352.12a32,32,0,0,0,64,0V202.79A32,32,0,0,0,32,170.79Z"/><path class="bd8a2705-fe08-4ad2-8d60-638f6ca70658" d="M394.67,170.79a32,32,0,0,0-32,32V352.12a32,32,0,0,0,64,0V202.79A32,32,0,0,0,394.67,170.79Z"/><path class="bd8a2705-fe08-4ad2-8d60-638f6ca70658" d="M330.67,170.79H96a10.67,10.67,0,0,0-10.67,10.66V352.12A53.34,53.34,0,0,0,128,404.39v75.73a32,32,0,0,0,64,0V405.45h42.67v74.67a32,32,0,1,0,64,0V404.39a53.33,53.33,0,0,0,42.66-52.27V181.45A10.66,10.66,0,0,0,330.67,170.79Z"/><path class="bd8a2705-fe08-4ad2-8d60-638f6ca70658" d="M290.88,44.32l26-26A10.67,10.67,0,0,0,302.06,3l-.26.27L271.51,33.55a146,146,0,0,0-116.33,0L124.89,3.23A10.67,10.67,0,0,0,109.8,18.32l26,26a112.59,112.59,0,0,0-50.46,94.47A10.67,10.67,0,0,0,96,149.45H330.67a10.66,10.66,0,0,0,10.66-10.66A112.56,112.56,0,0,0,290.88,44.32ZM160,106.79a10.67,10.67,0,1,1,10.67-10.67A10.67,10.67,0,0,1,160,106.79Zm106.67,0a10.67,10.67,0,1,1,10.66-10.67A10.67,10.67,0,0,1,266.67,106.79Z"/></g></g></svg>