<svg xmlns="http://www.w3.org/2000/svg" viewBox="0 0 1141.01 185"><defs><style>.faef9aa8-f418-40ad-b7c4-f54082f18832{fill:#fff;}.e8493dce-da08-4b01-8ef5-50f5d4018050{fill:#d8d8d8;}</style></defs><title>answer-border</title><g id="b3ad2f8f-76bc-40e9-9c7a-17afaff5ed71" data-name="Слой 2"><g id="be9c9ca5-c7ba-4e89-9772-b51d155e519f" data-name="Слой 1"><path class="faef9aa8-f418-40ad-b7c4-f54082f18832" d="M9,183.5A7.5,7.5,0,0,1,1.5,176V18A7.5,7.5,0,0,1,9,10.5H32.3c3-3.59,8.05-9,10.7-9s7.66,5.41,10.7,9H1132a7.51,7.51,0,0,1,7.5,7.5V176a7.51,7.51,0,0,1-7.5,7.5Z"/><path class="e8493dce-da08-4b01-8ef5-50f5d4018050" d="M43,3c2.5,0,10,9,10,9H1132a6,6,0,0,1,6,6V176a6,6,0,0,1-6,6H9a6,6,0,0,1-6-6V18a6,6,0,0,1,6-6H33s7.5-9,10-9m0-3c-1.7,0-3.72.92-8.09,5.41C33.6,6.76,32.4,8.1,31.62,9H9a9,9,0,0,0-9,9V176a9,9,0,0,0,9,9H1132a9,9,0,0,0,9-9V18a9,9,0,0,0-9-9H54.39C46.69,0,43.93,0,43,0Z"/></g></g></svg>