<svg xmlns="http://www.w3.org/2000/svg" viewBox="0 0 79.05 92"><defs><style>.ee2f98a1-97c3-44b3-8206-6a8fa9f6f63d{fill:#545454;}</style></defs><title>apple</title><g id="e8ae94ef-4e8c-4fce-9bd3-68a76c7d292a" data-name="Слой 2"><g id="eac3f71f-ec64-457e-9c6e-dd5aa6a75c3a" data-name="Layer 1"><path class="ee2f98a1-97c3-44b3-8206-6a8fa9f6f63d" d="M79.05,67.5a66,66,0,0,1-6,11.16C69.2,84.56,63.73,91.94,57,92c-6,.06-7.58-3.93-15.76-3.85S31.33,92.06,25.3,92c-6.78-.06-12-6.7-15.84-12.6-10.86-16.54-12-35.93-5.3-46.24,4.75-7.32,12.26-11.61,19.32-11.61s11.7,3.94,17.64,3.94c5.76,0,9.27-3.95,17.58-3.95,6.28,0,12.92,3.42,17.67,9.33C60.84,39.38,63.37,61.56,79.05,67.5ZM52.39,14.94c3-3.89,5.32-9.36,4.48-14.94C51.94.34,46.18,3.48,42.81,7.56c-3.05,3.72-5.58,9.24-4.6,14.57C43.59,22.3,49.16,19.09,52.39,14.94Z"/></g></g></svg>