<svg xmlns="http://www.w3.org/2000/svg" viewBox="0 0 341 302.02"><defs><style>.ae90e9c6-2651-4f5e-9282-92cba8f2ac84{fill:#00c3ff;}</style></defs><title>appstore</title><g id="bc05344b-5dd5-45f1-b2c7-03bd07755a1b" data-name="Слой 2"><g id="a9c99a89-1e5f-4e47-aa07-4e71b9087e84" data-name="Capa 1"><path class="ae90e9c6-2651-4f5e-9282-92cba8f2ac84" d="M72.15,289.51A25,25,0,0,1,38,298.66h0a25,25,0,0,1-9.15-34.15L33.76,256H91.5Z"/><path class="ae90e9c6-2651-4f5e-9282-92cba8f2ac84" d="M25,236a25,25,0,0,1,0-50H74.18L141.63,69.16,123.35,37.5A25,25,0,0,1,132.5,3.34h0a25,25,0,0,1,34.15,9.16l3.85,6.66,3.85-6.66a25,25,0,1,1,43.3,25L131.91,186H186l28.87,50Z"/><path class="ae90e9c6-2651-4f5e-9282-92cba8f2ac84" d="M316,236H295.69l16.46,28.52A25,25,0,0,1,290.54,302a25.48,25.48,0,0,1-6.51-.86,24.86,24.86,0,0,1-15.18-11.65l-86.8-150.35,28.86-50L266.82,186H316a25,25,0,0,1,0,50Z"/><polygon class="ae90e9c6-2651-4f5e-9282-92cba8f2ac84" points="170.5 185.99 170.5 235.99 214.86 235.99 185.99 185.99 170.5 185.99"/><path class="ae90e9c6-2651-4f5e-9282-92cba8f2ac84" d="M220.15,18.52a25,25,0,0,0-45.8-6l-3.85,6.66h0v100L217.65,37.5A24.85,24.85,0,0,0,220.15,18.52Z"/></g></g></svg>