<svg xmlns="http://www.w3.org/2000/svg" xmlns:xlink="http://www.w3.org/1999/xlink" viewBox="0 0 197 337.52"><defs><style>.e8f21f84-1fea-433e-a31e-57a135becb7c{fill:none;}.b1dbe6aa-9e53-42a0-b676-022a8551632f{fill:#ff0c00;}.b6bd3c64-a896-4a0a-a6b9-7b10bb5726c5{fill:#57d9c7;}.e8758578-a29f-4aa6-bc13-960a40712d6d{fill:#fff;}.ff2184da-6bdd-498e-93b4-7ce163648e0a{fill:#2dcc8a;}.bc41cae5-e277-4db7-ad06-f212b50239cc{clip-path:url(#ae96c0a1-c487-43c6-97f6-730f3f2e389b);}</style><clipPath id="ae96c0a1-c487-43c6-97f6-730f3f2e389b"><path class="e8f21f84-1fea-433e-a31e-57a135becb7c" d="M70,79a50,50,0,1,0,50,50A50.06,50.06,0,0,0,70,79Z"/></clipPath></defs><title>block2_map-icnblock3_map-icn</title><g id="a6d1b0d3-9012-4b8d-80ef-3bad5c914ed6" data-name="Слой 2"><g id="b91d0cd0-b43d-48df-a90a-25251872161e" data-name="Слой 1"><polygon class="b1dbe6aa-9e53-42a0-b676-022a8551632f" points="197 80 157 80 157 120 117 120 117 80 77 80 77 40 117 40 117 0 157 0 157 40 197 40 197 80"/><path class="b6bd3c64-a896-4a0a-a6b9-7b10bb5726c5" d="M70,59C31.4,59,0,94.66,0,130.32,0,196.36,70,269,70,269s70-81.07,70-138.68C140,94.66,108.59,59,70,59Z"/><path class="e8758578-a29f-4aa6-bc13-960a40712d6d" d="M70,79a50,50,0,1,0,50,50A50.06,50.06,0,0,0,70,79Z"/><path class="b6bd3c64-a896-4a0a-a6b9-7b10bb5726c5" d="M70,288.94c22.09,0,40,9,40,20s-17.91,20-40,20-40-9-40-20,17.91-20,40-20m0-8.51c-27.66,0-48.52,12.27-48.52,28.54S42.34,337.52,70,337.52s48.52-12.28,48.52-28.55S97.66,280.43,70,280.43Z"/><ellipse class="ff2184da-6bdd-498e-93b4-7ce163648e0a" cx="70" cy="308.97" rx="20.06" ry="10.04"/><g class="bc41cae5-e277-4db7-ad06-f212b50239cc"><polygon class="b1dbe6aa-9e53-42a0-b676-022a8551632f" points="77 110 57 110 57 130 37 130 37 110 17 110 17 90 37 90 37 70 57 70 57 90 77 90 77 110"/><polygon class="b1dbe6aa-9e53-42a0-b676-022a8551632f" points="157 160 127 160 127 190 97 190 97 160 67 160 67 130 97 130 97 100 127 100 127 130 157 130 157 160"/></g></g></g></svg>