<svg xmlns="http://www.w3.org/2000/svg" viewBox="0 0 150.06 288.57"><defs><style>.b022f6e8-ed51-4d7f-8a4f-a819dfc0ef71{fill:#57d9c7;}.ecedd7d0-ec50-4538-881c-26f3984d25fd{fill:#2dcc8a;}.a2d1d26a-c65c-40f2-8f93-28bb6db284d0{fill:none;}.be0836fe-eab2-4d5f-bed5-c84046d85ddd{fill:#fff;}.f418fe55-4248-45e9-89e3-01e918f3f2a3{fill:#ff0c00;}</style></defs><title>block2_map-cicn</title><g id="b2e9fd83-1917-497a-a02d-a5267c3af012" data-name="Слой 2"><g id="ae6ca9dc-8898-4e00-96fe-916ea1415974" data-name="Слой 1"><path class="b022f6e8-ed51-4d7f-8a4f-a819dfc0ef71" d="M70,240c22.09,0,40,9,40,20s-17.91,20-40,20-40-9-40-20,17.91-20,40-20m0-8.52c-27.66,0-48.51,12.28-48.51,28.55S42.31,288.57,70,288.57,118.49,276.3,118.49,260,97.63,231.48,70,231.48Z"/><ellipse class="ecedd7d0-ec50-4538-881c-26f3984d25fd" cx="69.97" cy="260.03" rx="20.06" ry="10.04"/><path class="a2d1d26a-c65c-40f2-8f93-28bb6db284d0" d="M68,42C46.83,42,29.6,59.9,29.6,82S46.83,122,68,122,106.4,104,106.4,82,89.17,42,68,42Z"/><path class="ecedd7d0-ec50-4538-881c-26f3984d25fd" d="M70,10.06c-38.6,0-70,35-70,70,0,64.81,70,140,70,140s70-83.46,70-140C140,45.06,108.59,10.06,70,10.06Z"/><path class="be0836fe-eab2-4d5f-bed5-c84046d85ddd" d="M70,30a50,50,0,1,0,50,50A50.07,50.07,0,0,0,70,30Z"/><path class="f418fe55-4248-45e9-89e3-01e918f3f2a3" d="M122.42,4.74l-60.95,61C57,70.16,59,80.8,54.77,85L42.14,97.61a7.29,7.29,0,0,0,10.3,10.31L65.08,95.29c4.18-4.18,14.81-2.24,19.28-6.7l61-61a16.19,16.19,0,1,0-22.9-22.89Z"/><path class="be0836fe-eab2-4d5f-bed5-c84046d85ddd" d="M134.29,15.77a1.49,1.49,0,0,0-2.09,0l-8,8-2.08-2.08A1.47,1.47,0,1,0,120,23.8l2.09,2.09-4.87,4.86-.3-.31a1.05,1.05,0,0,0-1.47,0l-.61.61a1,1,0,0,0,0,1.48l.3.3-4.86,4.86-2.09-2.08a1.47,1.47,0,0,0-2.08,2.08l2.08,2.09-4.86,4.86-.3-.3a1,1,0,0,0-1.48,0l-.61.61a1.05,1.05,0,0,0,0,1.47l.31.3-4.86,4.87L94.3,49.5a1.47,1.47,0,1,0-2.08,2.09l2.08,2.08-4.86,4.86-.3-.3a1,1,0,0,0-1.48,0l-.61.61a1,1,0,0,0,0,1.47l.31.31-4.87,4.86-2.08-2.09a1.47,1.47,0,0,0-2.08,2.09l2.08,2.08L74,74a1.47,1.47,0,0,0,2.09,2.08l6.43-6.43,2.09,2.08a1.48,1.48,0,0,0,2.08,0,1.46,1.46,0,0,0,0-2.08l-2.08-2.09,4.86-4.86.31.3a1,1,0,0,0,1.47,0l.61-.61a1,1,0,0,0,0-1.47l-.31-.3,4.87-4.87,2.08,2.09a1.47,1.47,0,0,0,2.08-2.09l-2.08-2.08,4.86-4.86.31.3a1,1,0,0,0,1.47,0l.61-.61a1,1,0,0,0,0-1.47l-.3-.31,4.86-4.86L112.36,44a1.48,1.48,0,0,0,2.09-2.09l-2.09-2.08,4.86-4.86.31.3a1,1,0,0,0,1.47,0l.61-.61a1,1,0,0,0,0-1.47l-.3-.31L124.17,28l2.08,2.08A1.47,1.47,0,0,0,128.34,28l-2.09-2.08,8-8A1.48,1.48,0,0,0,134.29,15.77Z"/></g></g></svg>