<svg xmlns="http://www.w3.org/2000/svg" viewBox="0 0 113.23 113.23"><defs><style>.a93f7ddd-9e7e-4cfb-a256-f48526ee6c6d{fill:#ff0c00;}.a108a4c1-7582-4dcf-abcc-68a1f68db6df{fill:#fff;}</style></defs><title>client_icn</title><g id="b765ca6c-051c-4a0f-b3c7-2a250a9dace2" data-name="Слой 2"><g id="abd6c34b-cecc-403a-b69f-d94e1f3b2ba3" data-name="Слой 1"><path class="a93f7ddd-9e7e-4cfb-a256-f48526ee6c6d" d="M84.8,4.88,22.09,67.59c-4.6,4.6-2.59,15.54-6.89,19.84l-13,13A7.5,7.5,0,1,0,12.8,111l13-13c4.3-4.3,15.24-2.3,19.84-6.89l62.72-62.72A16.66,16.66,0,0,0,84.8,4.88Z"/><path class="a108a4c1-7582-4dcf-abcc-68a1f68db6df" d="M97,16.23a1.51,1.51,0,0,0-2.15,0L86.6,24.49l-2.14-2.14a1.52,1.52,0,1,0-2.15,2.14l2.15,2.14-5,5-.31-.32a1.07,1.07,0,0,0-1.52,0L77,32a1.07,1.07,0,0,0,0,1.52l.31.31-5,5-2.15-2.14A1.51,1.51,0,0,0,68,38.78l2.14,2.15-5,5-.31-.31a1.07,1.07,0,0,0-1.52,0l-.63.62a1.07,1.07,0,0,0,0,1.52l.32.31-5,5-2.14-2.15a1.52,1.52,0,1,0-2.14,2.15l2.14,2.14-5,5-.32-.31a1.06,1.06,0,0,0-1.51,0l-.63.63a1.06,1.06,0,0,0,0,1.51l.31.32-5,5-2.14-2.15a1.52,1.52,0,1,0-2.15,2.15l2.15,2.14L35,76.14a1.52,1.52,0,1,0,2.15,2.14l6.62-6.62,2.15,2.14A1.51,1.51,0,0,0,48,71.66l-2.14-2.15,5-5,.31.31a1.07,1.07,0,0,0,1.52,0l.63-.62a1.09,1.09,0,0,0,0-1.52L53,62.37l5-5,2.15,2.15a1.52,1.52,0,1,0,2.14-2.15l-2.14-2.14,5-5,.31.31a1.07,1.07,0,0,0,1.52,0l.63-.63a1.06,1.06,0,0,0,0-1.51l-.32-.32,5-5,2.14,2.14a1.51,1.51,0,1,0,2.14-2.14l-2.14-2.14,5-5,.32.32a1.06,1.06,0,0,0,1.51,0l.63-.63a1.07,1.07,0,0,0,0-1.52l-.31-.31,5-5,2.14,2.14a1.52,1.52,0,0,0,2.15-2.14l-2.15-2.15L97,18.37A1.51,1.51,0,0,0,97,16.23Z"/></g></g></svg>