<svg xmlns="http://www.w3.org/2000/svg" viewBox="0 0 35.02 39.99"><defs><style>.a3b1848f-3485-4861-9dfe-bd8d1622bde8{fill:#00d4ff;}.b35ae42f-7b03-4968-a03d-a69f3b013ce3{fill:#00f076;}.b8ea1b03-4333-4829-8230-c6b8a95473d4{fill:#f83548;}.ad5ad47f-05a8-4af2-ab6b-9b13fa8d8dbd{fill:#ffdb00;}</style></defs><title>g_play_icn</title><g id="bc6b7f93-ff64-4898-bba5-f2aae89a5bdd" data-name="Слой 2"><g id="bb0babc9-9c32-462f-bcb2-ebb5d78d61fd" data-name="Layer 1"><path class="a3b1848f-3485-4861-9dfe-bd8d1622bde8" d="M.7,0A1,1,0,0,0,0,1.11v38a.84.84,0,0,0,.5.86L20.68,19.88Z"/><path class="b35ae42f-7b03-4968-a03d-a69f3b013ce3" d="M26.24,14.35,17.93,9.56,1.79.24A1.4,1.4,0,0,0,.7,0l20,19.84Z"/><path class="b8ea1b03-4333-4829-8230-c6b8a95473d4" d="M1.42,39.79,26.28,25.44l-5.6-5.56L.5,39.94A1.07,1.07,0,0,0,1.42,39.79Z"/><path class="ad5ad47f-05a8-4af2-ab6b-9b13fa8d8dbd" d="M34.4,19.06c-.8-.43-8.1-4.67-8.1-4.67l-.06,0-5.56,5.53,5.6,5.56,8.06-4.66C35.28,20.24,35.19,19.49,34.4,19.06Z"/></g></g></svg>