<svg xmlns="http://www.w3.org/2000/svg" xmlns:xlink="http://www.w3.org/1999/xlink" viewBox="0 0 60 60"><defs><style>.a47a88f6-29b0-4636-be60-f870a09a68bb{fill:none;clip-rule:evenodd;}.afb6826e-82aa-4c75-8e2d-35f4a363e4c0{clip-path:url(#fbeadbc1-8b86-4ae4-8d5f-50b2ec755143);}.bf6884eb-3e87-424a-9bda-a2e68651b242{fill:url(#fd1943a1-dda5-4b42-80e6-23df649cedb2);}.a315b01c-8ef3-4d4d-8d9b-391f11d5d1a7{fill:url(#e121a7ae-5c14-425a-9fae-4860ae183cac);}.b499345a-d184-4d81-b81e-baced1dd1b64{fill:#fff;}</style><clipPath id="fbeadbc1-8b86-4ae4-8d5f-50b2ec755143" transform="translate(0.02 0.2)"><path class="a47a88f6-29b0-4636-be60-f870a09a68bb" d="M30,0A30,30,0,1,1,0,30,30,30,0,0,1,30,0Z"/></clipPath><linearGradient id="fd1943a1-dda5-4b42-80e6-23df649cedb2" x1="4.54" y1="-0.72" x2="55.01" y2="60.17" gradientUnits="userSpaceOnUse"><stop offset="0.04" stop-color="#405de6"/><stop offset="0.15" stop-color="#6750bd"/><stop offset="0.3" stop-color="#94408c"/><stop offset="0.45" stop-color="#ba3464"/><stop offset="0.6" stop-color="#d72a45"/><stop offset="0.74" stop-color="#ec232f"/><stop offset="0.88" stop-color="#f91e22"/><stop offset="1" stop-color="#fd1d1d"/></linearGradient><radialGradient id="e121a7ae-5c14-425a-9fae-4860ae183cac" cx="12.82" cy="58.28" r="46.15" gradientTransform="translate(-59.55 44.18) rotate(-68.82) scale(1 1.25)" gradientUnits="userSpaceOnUse"><stop offset="0.06" stop-color="#fccc63"/><stop offset="0.23" stop-color="#fab155" stop-opacity="0.94"/><stop offset="0.53" stop-color="#f77737" stop-opacity="0.8"/><stop offset="0.64" stop-color="#d96757" stop-opacity="0.59"/><stop offset="0.81" stop-color="#ab4f89" stop-opacity="0.28"/><stop offset="0.94" stop-color="#8e40a8" stop-opacity="0.08"/><stop offset="1" stop-color="#833ab4" stop-opacity="0"/></radialGradient></defs><title>instag</title><g id="fc307be3-d914-4e7a-83dc-611298cb4d3b" data-name="Слой 2"><g id="b9f8dd23-25d9-4454-996c-03733ba8565d" data-name="2"><g class="afb6826e-82aa-4c75-8e2d-35f4a363e4c0"><rect class="bf6884eb-3e87-424a-9bda-a2e68651b242" width="60" height="60" rx="11.51"/><rect class="a315b01c-8ef3-4d4d-8d9b-391f11d5d1a7" width="60" height="60" rx="11.51"/></g><path class="b499345a-d184-4d81-b81e-baced1dd1b64" d="M36.32,17A6.69,6.69,0,0,1,43,23.68V36.32A6.69,6.69,0,0,1,36.32,43H23.68A6.69,6.69,0,0,1,17,36.32V23.68A6.69,6.69,0,0,1,23.68,17H36.32M30,38a8,8,0,1,0-7.92-8A8,8,0,0,0,30,38m6.32-24H23.68A9.69,9.69,0,0,0,14,23.68V36.32A9.69,9.69,0,0,0,23.68,46H36.32A9.69,9.69,0,0,0,46,36.32V23.68A9.69,9.69,0,0,0,36.32,14ZM30,35a5,5,0,1,1,4.92-5A5,5,0,0,1,30,35Z" transform="translate(0.02 0.2)"/><circle class="b499345a-d184-4d81-b81e-baced1dd1b64" cx="37.89" cy="22.2" r="2"/></g></g></svg>