<svg xmlns="http://www.w3.org/2000/svg" xmlns:xlink="http://www.w3.org/1999/xlink" viewBox="0 0 196.2 30.2"><defs><style>.ad6f90eb-14f6-4215-8a23-5d27726a40c4{fill:none;}.b6caaa6c-e26e-4690-a6e6-1b8dbd0808c8{fill:#fff;}.a7c5f2fa-dd3a-4f59-ab61-9cb90faeb889{clip-path:url(#a94861f8-a511-475c-86f9-c61e4d2d48bd);}</style><clipPath id="a94861f8-a511-475c-86f9-c61e4d2d48bd"><path class="ad6f90eb-14f6-4215-8a23-5d27726a40c4" d="M128.75,26.67l5-1.14,1.87-2.39-3.53-2.76-1.54,2.12-3.26-1.38V17.07l3.37-1.72,2.13.15,1.87-2.21-4.44-2.12-5.85,3.7L123.6,19l.28,3.28s2.41,2.86,2.75,3.09S128.75,26.67,128.75,26.67Z"/></clipPath></defs><title>logo_</title><g id="b825ef10-1b59-4b7d-b779-7b7be75b5ee5" data-name="Слой 2"><g id="ac69b9c3-e3d7-4413-bdd5-846b47d2f050" data-name="Слой 1"><path class="b6caaa6c-e26e-4690-a6e6-1b8dbd0808c8" d="M11.29,0H.46A.45.45,0,0,0,0,.46V29.28a.45.45,0,0,0,.46.46H11.29c8,0,14.05-6.39,14.05-14.87S19.3,0,11.29,0Zm7.93,23.31a10.53,10.53,0,0,1-7.93,3.46H3.1V3h8.19a10.5,10.5,0,0,1,7.93,3.47,12.52,12.52,0,0,1,3.06,8.43A12.54,12.54,0,0,1,19.22,23.31Z"/><path class="b6caaa6c-e26e-4690-a6e6-1b8dbd0808c8" d="M38.14,7.78A11.21,11.21,0,1,0,49.39,19,11.13,11.13,0,0,0,38.14,7.78Zm0,19.52A8.2,8.2,0,0,1,29.87,19a8.25,8.25,0,1,1,16.5,0A8.18,8.18,0,0,1,38.14,27.3Z"/><path class="b6caaa6c-e26e-4690-a6e6-1b8dbd0808c8" d="M71.92,24.11l-1.73-1a.43.43,0,0,0-.35,0,.44.44,0,0,0-.28.22,7.75,7.75,0,0,1-7,4A8.11,8.11,0,0,1,54.27,19a8.21,8.21,0,0,1,8.28-8.31,7.32,7.32,0,0,1,6.87,4,.46.46,0,0,0,.28.25.48.48,0,0,0,.37,0l1.69-1a.46.46,0,0,0,.18-.59,10.06,10.06,0,0,0-9.39-5.54A11,11,0,0,0,51.26,19,11,11,0,0,0,62.55,30.2a10.59,10.59,0,0,0,9.55-5.48A.47.47,0,0,0,71.92,24.11Z"/><path class="b6caaa6c-e26e-4690-a6e6-1b8dbd0808c8" d="M88.81,17.45A9,9,0,0,0,85.94,0H74.57a.45.45,0,0,0-.45.46V29.28a.45.45,0,0,0,.45.46h2.19a.45.45,0,0,0,.45-.46V17.92h8.38l6.79,11.6a.45.45,0,0,0,.4.22h2.51a.45.45,0,0,0,.39-.23.45.45,0,0,0,0-.46ZM77.21,15V3h8.73a6,6,0,0,1,0,12Z"/><path class="b6caaa6c-e26e-4690-a6e6-1b8dbd0808c8" d="M116.54,8.24h-2.1a.45.45,0,0,0-.46.45v3.13a10.33,10.33,0,0,0-8.4-4A11.05,11.05,0,0,0,94.46,19,11.05,11.05,0,0,0,105.58,30.2a10.33,10.33,0,0,0,8.4-4v3.12a.45.45,0,0,0,.46.46h2.1a.46.46,0,0,0,.46-.46V8.69A.46.46,0,0,0,116.54,8.24ZM105.75,27.3A8.2,8.2,0,0,1,97.48,19,8.25,8.25,0,1,1,114,19,8.19,8.19,0,0,1,105.75,27.3Z"/><path class="b6caaa6c-e26e-4690-a6e6-1b8dbd0808c8" d="M141,0H139a.46.46,0,0,0-.46.46V11.89a10.15,10.15,0,0,0-8.39-4.11A11.06,11.06,0,0,0,119,19,11.06,11.06,0,0,0,130.13,30.2a10.15,10.15,0,0,0,8.39-4.11v3.19a.46.46,0,0,0,.46.46H141a.46.46,0,0,0,.46-.46V.46A.46.46,0,0,0,141,0ZM130.25,27.3A8.2,8.2,0,0,1,122,19a8.31,8.31,0,0,1,13.2-6.72l-4.47,4.85a1.87,1.87,0,1,0,1.41,1.82,1.92,1.92,0,0,0-.08-.55l4.48-4.87a8.31,8.31,0,0,1,2,5.47A8.2,8.2,0,0,1,130.25,27.3Z"/><path class="b6caaa6c-e26e-4690-a6e6-1b8dbd0808c8" d="M165.54,8.24h-2.1a.45.45,0,0,0-.45.45v3.13a10.34,10.34,0,0,0-8.4-4A11,11,0,0,0,143.47,19,11,11,0,0,0,154.59,30.2a10.34,10.34,0,0,0,8.4-4v3.12a.45.45,0,0,0,.45.46h2.1a.45.45,0,0,0,.46-.46V8.69A.45.45,0,0,0,165.54,8.24ZM154.76,27.3A8.21,8.21,0,0,1,146.48,19,8.26,8.26,0,1,1,163,19,8.19,8.19,0,0,1,154.76,27.3Z"/><path class="b6caaa6c-e26e-4690-a6e6-1b8dbd0808c8" d="M177.72,8a7.46,7.46,0,0,0-6.42,3V8.69a.45.45,0,0,0-.46-.45h-2.06a.45.45,0,0,0-.45.45V29.28a.45.45,0,0,0,.45.46h2.06a.45.45,0,0,0,.46-.46V17.84c0-3.39,1.69-7,6.42-7a.46.46,0,0,0,.46-.46v-2A.46.46,0,0,0,177.72,8Z"/><g class="a7c5f2fa-dd3a-4f59-ab61-9cb90faeb889"><path class="b6caaa6c-e26e-4690-a6e6-1b8dbd0808c8" d="M130.29,25.12a6.19,6.19,0,1,1,6.1-6.18A6.15,6.15,0,0,1,130.29,25.12Zm0-10.31a4.13,4.13,0,1,0,4,4.13A4.09,4.09,0,0,0,130.29,14.81Z"/></g><path class="b6caaa6c-e26e-4690-a6e6-1b8dbd0808c8" d="M190,.07a6.19,6.19,0,1,1-6.2,6.2A6.21,6.21,0,0,1,190,.07Zm0,1a5.19,5.19,0,1,0,5.19,5.19A5.19,5.19,0,0,0,190,1.08Zm2.59,3.68a2.92,2.92,0,0,0-2.19-1,2.45,2.45,0,0,0-2.48,2.62,2.43,2.43,0,0,0,2.46,2.59,3,3,0,0,0,2.26-1.09V9.29a3.75,3.75,0,0,1-6-2.93,3.74,3.74,0,0,1,5.91-3Z"/></g></g></svg>