<svg xmlns="http://www.w3.org/2000/svg" viewBox="0 0 30 19.82"><defs><style>.eeb0c772-89cf-4af2-a26e-0a8c21cff3c6{fill:#fff;}.a2cbc588-67d9-4feb-b2ec-3cd932ac0ce4{fill:none;stroke:#fff;stroke-linecap:round;stroke-linejoin:round;stroke-width:3px;}</style></defs><title>mail_icn</title><g id="bd3a8234-4f81-4bfb-b3f0-b2c3372f3009" data-name="Слой 2"><g id="f447612e-e056-4996-9cd1-44b71ad7a98d" data-name="Слой 1"><path class="eeb0c772-89cf-4af2-a26e-0a8c21cff3c6" d="M26.09,3a.91.91,0,0,1,.91.91v12a.92.92,0,0,1-.91.92H3.91A.92.92,0,0,1,3,15.9v-12A.91.91,0,0,1,3.91,3H26.09m0-3H3.91A3.91,3.91,0,0,0,0,3.91v12a3.92,3.92,0,0,0,3.91,3.92H26.09A3.92,3.92,0,0,0,30,15.9v-12A3.91,3.91,0,0,0,26.09,0Z"/><polyline class="a2cbc588-67d9-4feb-b2ec-3cd932ac0ce4" points="24.08 7.19 15 13.18 5.92 7.19"/></g></g></svg>