<svg xmlns="http://www.w3.org/2000/svg" xmlns:xlink="http://www.w3.org/1999/xlink" viewBox="0 0 70 56.77"><defs><style>.b3b74467-85f9-440c-8587-bdea399a86bb,.bd062aa4-2dd8-4aa8-b5fd-2c8b65946882{fill:none;}.bd062aa4-2dd8-4aa8-b5fd-2c8b65946882{stroke:#57d9c7;stroke-linecap:round;stroke-linejoin:round;stroke-width:6px;}.b9c1502e-8474-47db-86ab-5e439a0e49dd{fill:#57d9c7;}.a0e4ac75-be21-4bba-8c87-1fac6b022396{fill:#fff;}.bb951e7b-9f4d-4be9-8554-5b1529824174{clip-path:url(#b9261c10-5b09-482a-9b14-413353e5e4a5);}.bc428830-580e-49a7-a759-149a3376f486{fill:#ff0c00;}</style><clipPath id="b9261c10-5b09-482a-9b14-413353e5e4a5"><path class="b3b74467-85f9-440c-8587-bdea399a86bb" d="M35,22A15,15,0,1,0,50,37,15,15,0,0,0,35,22Z"/></clipPath></defs><title>med_spec_icnmed_spec_icn</title><g id="f2b4f801-f303-4492-a4c9-4179c6a99d9a" data-name="Слой 2"><g id="a26b4267-7bb6-46e1-a41a-e6b7af0b0883" data-name="Слой 1"><path class="bd062aa4-2dd8-4aa8-b5fd-2c8b65946882" d="M45.54,7.56a14.46,14.46,0,0,0-21.08,0"/><path class="b9c1502e-8474-47db-86ab-5e439a0e49dd" d="M65.25,56.77H4.75A2.71,2.71,0,0,1,2,54.11S0,41.28,0,37,2,19.68,2,19.68A2.72,2.72,0,0,1,4.75,17h60.5A2.72,2.72,0,0,1,68,19.68s2,13,2,17.33-2,17.1-2,17.1A2.71,2.71,0,0,1,65.25,56.77Z"/><path class="a0e4ac75-be21-4bba-8c87-1fac6b022396" d="M35,22A15,15,0,1,0,50,37,15,15,0,0,0,35,22Z"/><g class="bb951e7b-9f4d-4be9-8554-5b1529824174"><polygon class="bc428830-580e-49a7-a759-149a3376f486" points="37.1 31.29 31.1 31.29 31.1 37.29 25.1 37.29 25.1 31.29 19.1 31.29 19.1 25.29 25.1 25.29 25.1 19.29 31.1 19.29 31.1 25.29 37.1 25.29 37.1 31.29"/><polygon class="bc428830-580e-49a7-a759-149a3376f486" points="61.1 46.29 52.1 46.29 52.1 55.29 43.1 55.29 43.1 46.29 34.1 46.29 34.1 37.29 43.1 37.29 43.1 28.29 52.1 28.29 52.1 37.29 61.1 37.29 61.1 46.29"/></g></g></g></svg>