<svg xmlns="http://www.w3.org/2000/svg" viewBox="0 0 177.97 177.97"><defs><style>.b865630f-bdeb-490c-b212-a2f84f662f7d{fill:#333;fill-rule:evenodd;}.b11555d4-6021-4ed7-a584-08eb4f83a02b{fill:#ff3d00;}.a301fa24-c57f-42cd-a5a5-1343d2452089{fill:#fff;}</style></defs><title>youtube_icn</title><g id="b38f63df-d356-4652-89a8-76979d4a13ef" data-name="Слой 2"><g id="e33f9940-95f6-47fb-a868-d3afe92a398f" data-name="2"><path class="b865630f-bdeb-490c-b212-a2f84f662f7d" d="M89,0A89,89,0,1,1,0,89,89,89,0,0,1,89,0Z"/><path class="b11555d4-6021-4ed7-a584-08eb4f83a02b" d="M126.19,109.77a10,10,0,0,1-8.4,8,208.15,208.15,0,0,1-30,2.2,213.11,213.11,0,0,1-30-2.2,10,10,0,0,1-8.4-8A117.06,117.06,0,0,1,47.79,90a117.06,117.06,0,0,1,1.6-19.8,10,10,0,0,1,8.4-8,208.15,208.15,0,0,1,30-2.2,210.61,210.61,0,0,1,30,2.2,10,10,0,0,1,8.4,8A113.46,113.46,0,0,1,128,90,137.35,137.35,0,0,1,126.19,109.77Z"/><path class="a301fa24-c57f-42cd-a5a5-1343d2452089" d="M79.79,100.48v-21a2,2,0,0,1,3-1.73l18,10.52a2,2,0,0,1,0,3.45l-18,10.52A2,2,0,0,1,79.79,100.48Z"/></g></g></svg>