<svg xmlns="http://www.w3.org/2000/svg" viewBox="0 0 80.2 60"><defs><style>.f7bb4890-c2ca-4f67-894b-2ce9219b6850{fill:#ff3d00;}.a534dc87-51bf-4a2b-9928-4c7729e01c84{fill:#fff;}</style></defs><title>youtube</title><g id="fcdd12fb-4bb5-49ce-aadf-340f1ca80f5d" data-name="Слой 2"><g id="b20c09a2-94aa-49ec-94f2-5febde76277a" data-name="Layer 1"><path class="f7bb4890-c2ca-4f67-894b-2ce9219b6850" d="M78.4,49.8a10,10,0,0,1-8.4,8A208.15,208.15,0,0,1,40,60a213.11,213.11,0,0,1-30-2.2,10,10,0,0,1-8.4-8A117.06,117.06,0,0,1,0,30,117.06,117.06,0,0,1,1.6,10.2a10,10,0,0,1,8.4-8A208.15,208.15,0,0,1,40,0,210.61,210.61,0,0,1,70,2.2a10,10,0,0,1,8.4,8A113.46,113.46,0,0,1,80.2,30,137.35,137.35,0,0,1,78.4,49.8Z"/><path class="a534dc87-51bf-4a2b-9928-4c7729e01c84" d="M32,40.52v-21a2,2,0,0,1,3-1.73L53,28.27a2,2,0,0,1,0,3.46L35,42.25A2,2,0,0,1,32,40.52Z"/></g></g></svg>